<svg width="24" height="23" viewBox="0 0 24 23" fill="none" xmlns="http://www.w3.org/2000/svg">
    <path d="M18.953 10.3715H13.0582V4.71434C13.0582 4.46428 12.9547 4.22446 12.7705 4.04764C12.5862 3.87082 12.3363 3.77148 12.0757 3.77148C11.8152 3.77148 11.5653 3.87082 11.381 4.04764C11.1968 4.22446 11.0933 4.46428 11.0933 4.71434V10.3715H5.19852C4.93796 10.3715 4.68807 10.4708 4.50382 10.6476C4.31957 10.8245 4.21606 11.0643 4.21606 11.3143C4.21606 11.5644 4.31957 11.8042 4.50382 11.981C4.68807 12.1579 4.93796 12.2572 5.19852 12.2572H11.0933V17.9143C11.0933 18.1644 11.1968 18.4042 11.381 18.581C11.5653 18.7579 11.8152 18.8572 12.0757 18.8572C12.3363 18.8572 12.5862 18.7579 12.7705 18.581C12.9547 18.4042 13.0582 18.1644 13.0582 17.9143V12.2572H18.953C19.2135 12.2572 19.4634 12.1579 19.6477 11.981C19.8319 11.8042 19.9354 11.5644 19.9354 11.3143C19.9354 11.0643 19.8319 10.8245 19.6477 10.6476C19.4634 10.4708 19.2135 10.3715 18.953 10.3715Z" fill="white"/>
    </svg>
    