<svg width="36" height="37" viewBox="0 0 36 37" fill="none" xmlns="http://www.w3.org/2000/svg">
    <path d="M9.53733 12.0067L15.9901 18.612L9.35175 25.0972C9.05831 25.3838 8.89021 25.7747 8.88441 26.1839C8.87861 26.593 9.03559 26.9869 9.32082 27.2789C9.60605 27.5709 9.99617 27.737 10.4053 27.7408C10.8145 27.7445 11.2092 27.5856 11.5027 27.2989L18.1411 20.8138L24.5939 27.4191C24.8791 27.711 25.2692 27.8772 25.6784 27.8809C26.0876 27.8847 26.4823 27.7257 26.7757 27.4391C27.0692 27.1524 27.2373 26.7615 27.2431 26.3524C27.2489 25.9432 27.0919 25.5493 26.8067 25.2573L20.3539 18.6521L26.9922 12.1669C27.2857 11.8803 27.4538 11.4894 27.4596 11.0802C27.4654 10.671 27.3084 10.2772 27.0232 9.98518C26.7379 9.69321 26.3478 9.52707 25.9386 9.52332C25.5295 9.51956 25.1347 9.6785 24.8413 9.96516L18.2029 16.4503L11.7501 9.84503C11.4649 9.55305 11.0748 9.38692 10.6656 9.38316C10.2564 9.37941 9.86169 9.53834 9.56825 9.825C9.27482 10.1117 9.10671 10.5026 9.10091 10.9117C9.09511 11.3209 9.25209 11.7148 9.53733 12.0067Z" fill="black"/>
    </svg>
    