<svg width="32" height="32" viewBox="0 0 32 32" fill="none" xmlns="http://www.w3.org/2000/svg">
    <path d="M20.0003 21.334H12.0003C11.6467 21.334 11.3076 21.4745 11.0575 21.7245C10.8075 21.9746 10.667 22.3137 10.667 22.6673C10.667 23.0209 10.8075 23.3601 11.0575 23.6101C11.3076 23.8602 11.6467 24.0007 12.0003 24.0007H20.0003C20.3539 24.0007 20.6931 23.8602 20.9431 23.6101C21.1932 23.3601 21.3337 23.0209 21.3337 22.6673C21.3337 22.3137 21.1932 21.9746 20.9431 21.7245C20.6931 21.4745 20.3539 21.334 20.0003 21.334Z" fill="white"/>
    <path d="M12.0003 18.6667H16.0003C16.3539 18.6667 16.6931 18.5262 16.9431 18.2761C17.1932 18.0261 17.3337 17.687 17.3337 17.3333C17.3337 16.9797 17.1932 16.6406 16.9431 16.3905C16.6931 16.1405 16.3539 16 16.0003 16H12.0003C11.6467 16 11.3076 16.1405 11.0575 16.3905C10.8075 16.6406 10.667 16.9797 10.667 17.3333C10.667 17.687 10.8075 18.0261 11.0575 18.2761C11.3076 18.5262 11.6467 18.6667 12.0003 18.6667Z" fill="white"/>
    <path d="M26.3207 11.1067L19.0673 3.10674C18.9427 2.96862 18.7905 2.85812 18.6205 2.78234C18.4506 2.70656 18.2667 2.66718 18.0807 2.66674H8.74732C8.30432 2.66146 7.86461 2.74349 7.45332 2.90815C7.04202 3.07281 6.66719 3.31688 6.35023 3.62642C6.03326 3.93595 5.78038 4.30489 5.60601 4.71217C5.43164 5.11944 5.33921 5.55708 5.33398 6.00008V26.0001C5.33921 26.4431 5.43164 26.8807 5.60601 27.288C5.78038 27.6953 6.03326 28.0642 6.35023 28.3737C6.66719 28.6833 7.04202 28.9273 7.45332 29.092C7.86461 29.2567 8.30432 29.3387 8.74732 29.3334H23.254C23.697 29.3387 24.1367 29.2567 24.548 29.092C24.9593 28.9273 25.3341 28.6833 25.6511 28.3737C25.968 28.0642 26.2209 27.6953 26.3953 27.288C26.5697 26.8807 26.6621 26.4431 26.6673 26.0001V12.0001C26.6665 11.6696 26.5429 11.3513 26.3207 11.1067ZM18.6673 6.66674L22.3207 10.6667H19.654C19.5144 10.6583 19.3778 10.6222 19.2523 10.5604C19.1268 10.4986 19.0149 10.4125 18.923 10.307C18.8312 10.2015 18.7613 10.0787 18.7173 9.94591C18.6734 9.8131 18.6564 9.67287 18.6673 9.53341V6.66674ZM23.254 26.6667H8.74732C8.65448 26.6721 8.5615 26.6592 8.47368 26.6286C8.38587 26.598 8.30497 26.5503 8.2356 26.4884C8.16623 26.4265 8.10978 26.3515 8.06946 26.2677C8.02914 26.1839 8.00576 26.0929 8.00065 26.0001V6.00008C8.00576 5.90723 8.02914 5.8163 8.06946 5.7325C8.10978 5.6487 8.16623 5.57369 8.2356 5.51175C8.30497 5.44982 8.38587 5.40219 8.47368 5.37158C8.5615 5.34098 8.65448 5.32801 8.74732 5.33341H16.0007V9.53341C15.9791 10.5156 16.347 11.4664 17.0239 12.1783C17.7009 12.8902 18.632 13.3055 19.614 13.3334H24.0007V26.0001C23.9955 26.0929 23.9722 26.1839 23.9318 26.2677C23.8915 26.3515 23.8351 26.4265 23.7657 26.4884C23.6963 26.5503 23.6154 26.598 23.5276 26.6286C23.4398 26.6592 23.3468 26.6721 23.254 26.6667Z" fill="white"/>
    </svg>
    