<svg width="17" height="15" viewBox="0 0 17 15" fill="none" xmlns="http://www.w3.org/2000/svg">
    <path d="M10.3095 1.65872C10.0703 1.65872 9.84097 1.57134 9.67185 1.41581C9.50273 1.26027 9.40772 1.04932 9.40772 0.829361C9.40772 0.609401 9.50273 0.39845 9.67185 0.242914C9.84097 0.0873789 10.0703 0 10.3095 0H15.7202C15.9594 0 16.1887 0.0873789 16.3579 0.242914C16.527 0.39845 16.622 0.609401 16.622 0.829361V5.80553C16.622 6.02549 16.527 6.23644 16.3579 6.39198C16.1887 6.54751 15.9594 6.63489 15.7202 6.63489C15.481 6.63489 15.2517 6.54751 15.0825 6.39198C14.9134 6.23644 14.8184 6.02549 14.8184 5.80553V2.83144L6.43815 10.5387C6.26807 10.6898 6.04028 10.7734 5.80384 10.7715C5.56739 10.7696 5.34121 10.6824 5.17402 10.5286C5.00682 10.3748 4.91198 10.1668 4.90992 9.94935C4.90787 9.7319 4.99876 9.5224 5.16303 9.36598L13.5433 1.65872H10.3095ZM0.389893 3.31745C0.389893 2.87753 0.579911 2.45562 0.918145 2.14455C1.25638 1.83348 1.71512 1.65872 2.19346 1.65872H6.70237C6.94154 1.65872 7.17091 1.7461 7.34003 1.90164C7.50915 2.05717 7.60416 2.26812 7.60416 2.48808C7.60416 2.70804 7.50915 2.919 7.34003 3.07453C7.17091 3.23007 6.94154 3.31745 6.70237 3.31745H2.19346V13.2698H13.0149V9.12298C13.0149 8.90302 13.1099 8.69206 13.279 8.53653C13.4481 8.38099 13.6775 8.29361 13.9166 8.29361C14.1558 8.29361 14.3852 8.38099 14.5543 8.53653C14.7234 8.69206 14.8184 8.90302 14.8184 9.12298V13.2698C14.8184 13.7097 14.6284 14.1316 14.2902 14.4427C13.9519 14.7537 13.4932 14.9285 13.0149 14.9285H2.19346C1.71512 14.9285 1.25638 14.7537 0.918145 14.4427C0.579911 14.1316 0.389893 13.7097 0.389893 13.2698V3.31745Z" fill="#022B7D"/>
    </svg>
    