<svg width="30" height="30" viewBox="0 0 30 30" fill="none" xmlns="http://www.w3.org/2000/svg">
    <path d="M11.25 3.75H6.25C5.58696 3.75 4.95107 4.01339 4.48223 4.48223C4.01339 4.95107 3.75 5.58696 3.75 6.25V11.25C3.75 11.913 4.01339 12.5489 4.48223 13.0178C4.95107 13.4866 5.58696 13.75 6.25 13.75H11.25C11.913 13.75 12.5489 13.4866 13.0178 13.0178C13.4866 12.5489 13.75 11.913 13.75 11.25V6.25C13.75 5.58696 13.4866 4.95107 13.0178 4.48223C12.5489 4.01339 11.913 3.75 11.25 3.75ZM6.25 11.25V6.25H11.25V11.25H6.25Z" fill="white"/>
    <path d="M23.7505 3.75H18.7505C18.0874 3.75 17.4516 4.01339 16.9827 4.48223C16.5139 4.95107 16.2505 5.58696 16.2505 6.25V11.25C16.2505 11.913 16.5139 12.5489 16.9827 13.0178C17.4516 13.4866 18.0874 13.75 18.7505 13.75H23.7505C24.4135 13.75 25.0494 13.4866 25.5183 13.0178C25.9871 12.5489 26.2505 11.913 26.2505 11.25V6.25C26.2505 5.58696 25.9871 4.95107 25.5183 4.48223C25.0494 4.01339 24.4135 3.75 23.7505 3.75ZM18.7505 11.25V6.25H23.7505V11.25H18.7505Z" fill="white"/>
    <path d="M11.25 16.2495H6.25C5.58696 16.2495 4.95107 16.5129 4.48223 16.9817C4.01339 17.4506 3.75 18.0865 3.75 18.7495V23.7495C3.75 24.4126 4.01339 25.0484 4.48223 25.5173C4.95107 25.9861 5.58696 26.2495 6.25 26.2495H11.25C11.913 26.2495 12.5489 25.9861 13.0178 25.5173C13.4866 25.0484 13.75 24.4126 13.75 23.7495V18.7495C13.75 18.0865 13.4866 17.4506 13.0178 16.9817C12.5489 16.5129 11.913 16.2495 11.25 16.2495ZM6.25 23.7495V18.7495H11.25V23.7495H6.25Z" fill="white"/>
    <path d="M23.7505 16.2495H18.7505C18.0874 16.2495 17.4516 16.5129 16.9827 16.9817C16.5139 17.4506 16.2505 18.0865 16.2505 18.7495V23.7495C16.2505 24.4126 16.5139 25.0484 16.9827 25.5173C17.4516 25.9861 18.0874 26.2495 18.7505 26.2495H23.7505C24.4135 26.2495 25.0494 25.9861 25.5183 25.5173C25.9871 25.0484 26.2505 24.4126 26.2505 23.7495V18.7495C26.2505 18.0865 25.9871 17.4506 25.5183 16.9817C25.0494 16.5129 24.4135 16.2495 23.7505 16.2495ZM18.7505 23.7495V18.7495H23.7505V23.7495H18.7505Z" fill="white"/>
    </svg>
    