<svg width="35" height="35" viewBox="0 0 35 35" fill="none" xmlns="http://www.w3.org/2000/svg">
    <path d="M10.2083 8.74967C10.595 8.74967 10.966 8.59603 11.2394 8.32254C11.5129 8.04905 11.6666 7.67812 11.6666 7.29134C11.6666 6.90457 11.5129 6.53363 11.2394 6.26014C10.966 5.98665 10.595 5.83301 10.2083 5.83301H7.29159C6.90481 5.83301 6.53388 5.98665 6.26039 6.26014C5.9869 6.53363 5.83325 6.90457 5.83325 7.29134V27.708C5.83325 28.0948 5.9869 28.4657 6.26039 28.7392C6.53388 29.0127 6.90481 29.1663 7.29159 29.1663H10.2083C10.595 29.1663 10.966 29.0127 11.2394 28.7392C11.5129 28.4657 11.6666 28.0948 11.6666 27.708C11.6666 27.3212 11.5129 26.9503 11.2394 26.6768C10.966 26.4033 10.595 26.2497 10.2083 26.2497H8.74992V8.74967H10.2083Z" fill="black"/>
    <path d="M30.3625 16.654L26.25 10.8206C26.027 10.5062 25.6885 10.2929 25.3087 10.2273C24.9288 10.1617 24.5385 10.2492 24.2229 10.4706C24.0652 10.5811 23.9309 10.7218 23.8279 10.8845C23.7248 11.0472 23.655 11.2287 23.6224 11.4185C23.5899 11.6083 23.5953 11.8027 23.6383 11.9905C23.6813 12.1782 23.761 12.3555 23.8729 12.5123L26.3812 16.0415H26.25H14.5833C14.1966 16.0415 13.8256 16.1951 13.5521 16.4686C13.2786 16.7421 13.125 17.113 13.125 17.4998C13.125 17.8866 13.2786 18.2575 13.5521 18.531C13.8256 18.8045 14.1966 18.9581 14.5833 18.9581H26.25L23.625 22.4581C23.5101 22.6113 23.4265 22.7857 23.379 22.9712C23.3314 23.1567 23.3209 23.3498 23.348 23.5394C23.3751 23.7289 23.4392 23.9113 23.5368 24.0761C23.6344 24.2409 23.7635 24.3849 23.9167 24.4998C24.1691 24.6891 24.4761 24.7915 24.7917 24.7915C25.0181 24.7915 25.2414 24.7387 25.4439 24.6375C25.6464 24.5362 25.8225 24.3892 25.9583 24.2081L30.3333 18.3748C30.5201 18.1281 30.6236 17.8285 30.6288 17.5191C30.6341 17.2098 30.5408 16.9068 30.3625 16.654Z" fill="black"/>
    </svg>
    