<svg width="114" height="29" viewBox="0 0 114 29" fill="none" xmlns="http://www.w3.org/2000/svg">
    <g filter="url(#filter0_b_162_922)">
    <path d="M16.65 6.91L17.16 12.4L17.1 12.43C16.41 11.23 15 10.21 13.2 10.21H10.95V23.26C10.95 25.84 11.79 27.43 12.78 27.94V28H5.01V27.94C5.88 27.43 6.84 25.81 6.84 23.26V10.21H4.56C2.76 10.21 1.35 11.23 0.66 12.43L0.6 12.4L1.11 6.91C2.49 7.09 3.75 7.15 5.22 7.15H12.54C14.01 7.15 15.27 7.09 16.65 6.91ZM38.9639 7.21C38.2139 7.72 37.3439 9.19 37.3439 11.65V23.62C37.3439 25.99 38.1839 27.43 38.9639 27.94V28H31.7039V27.94C32.3939 27.43 33.2339 25.96 33.2339 23.62V18.37H25.2539V23.5C25.2539 25.99 26.0639 27.43 26.7839 27.94V28H19.5239V27.94C20.2739 27.43 21.1439 25.96 21.1439 23.5V11.65C21.1439 9.16 20.3039 7.72 19.5239 7.21V7.15H26.7839V7.21C26.0939 7.72 25.2539 9.19 25.2539 11.65V15.37H33.2339V11.65C33.2339 9.16 32.4239 7.72 31.7039 7.21V7.15H38.9639V7.21ZM47.4727 6.13L47.4127 6.16L45.0427 3.34C46.2427 2.68 48.0727 1.18 49.0927 0.00999916H51.2227C52.2127 1.15 53.9827 2.62 55.2727 3.34L52.9027 6.16L52.8427 6.13C52.6027 5.41 51.1927 3.7 50.1427 2.62C49.0927 3.7 47.7127 5.41 47.4727 6.13ZM57.5227 22.24L57.5827 22.27L56.7427 28.24C55.6327 28.06 54.8527 28 53.0827 28H42.4927V27.94C43.2427 27.43 44.1127 25.96 44.1127 23.5V11.65C44.1127 9.16 43.2727 7.72 42.4927 7.21V7.15H53.2627C54.4627 7.15 55.7827 7.06 56.4427 6.91L56.9527 12.28L56.8927 12.31C56.1727 10.84 54.5227 10.09 52.1827 10.09H48.2227V15.37H50.5027C52.9927 15.37 53.8327 15.34 55.1827 15.16L54.3127 20.2H54.2527C53.7427 18.85 52.6627 18.31 50.9827 18.31H48.2227V25.06H51.4927C54.1327 25.06 56.2327 24.07 57.5227 22.24ZM59.7009 28L59.6709 27.94C60.6309 26.89 61.3209 25.69 61.4709 23.59L62.2509 11.95C62.3709 10.3 61.9809 8.02 60.6309 7.21L60.6609 7.15H67.5309C67.1709 7.6 67.2309 8.53 68.0109 9.88L70.9809 14.98C71.9109 16.6 72.5709 18.22 72.8409 19.93H72.9609C73.4109 18.1 74.1909 16.72 75.1809 14.98L78.1209 9.79C78.8709 8.47 78.9309 7.6 78.5709 7.15H85.5009L85.5309 7.21C84.1809 7.96 83.6709 10.3 83.7909 11.95L84.7209 23.59C84.8409 25.03 85.4109 26.86 86.4909 27.94L86.4609 28H79.5909L79.5609 27.94C80.1309 27.43 80.7009 26.11 80.5509 24.22L80.0709 18.01C79.9509 16.6 79.9809 15.04 80.2509 12.85H80.1309C79.5009 14.86 78.8109 16.27 77.8209 17.95L74.4909 23.59C73.4109 25.39 73.1409 26.59 73.0809 27.22H72.8409C72.7509 26.59 72.4509 25.39 71.3409 23.62L67.7709 17.92C66.8109 16.36 66.1809 14.95 65.6109 12.85H65.4909C65.7309 15.1 65.7309 16.72 65.6709 18.01L65.3409 24.22C65.2509 26.11 65.7609 27.43 66.3309 27.94L66.3009 28H59.7009ZM89.2212 28V27.94C89.9712 27.43 90.8412 25.96 90.8412 23.5V11.65C90.8412 9.16 90.0012 7.72 89.2212 7.21V7.15H96.6012V7.21C95.8512 7.72 94.9812 9.19 94.9812 11.65V23.5C94.9812 25.99 95.8212 27.43 96.6012 27.94V28H89.2212ZM106.389 28.45C103.959 28.48 101.679 28.06 100.329 27.25L99.8189 22.21L99.8789 22.18C101.679 24.52 103.629 25.39 106.089 25.33C108.519 25.27 109.569 24.25 109.569 22.63C109.569 20.56 107.739 19.78 105.699 18.94C103.089 17.86 100.179 16.63 100.179 12.46C100.179 9.49 102.729 6.76 107.379 6.76C108.939 6.76 110.349 6.94 112.089 7.39L112.479 12.31H112.419C111.129 10.33 109.419 9.85 107.679 9.85C105.399 9.85 104.229 10.63 104.229 12.16C104.229 13.9 105.909 14.59 107.859 15.4C110.529 16.51 113.709 17.83 113.709 22.33C113.709 25.66 111.249 28.39 106.389 28.45Z" fill="#04151C"/>
    </g>
    <defs>
    <filter id="filter0_b_162_922" x="-3.3999" y="-3.99023" width="121.109" height="36.4702" filterUnits="userSpaceOnUse" color-interpolation-filters="sRGB">
    <feFlood flood-opacity="0" result="BackgroundImageFix"/>
    <feGaussianBlur in="BackgroundImageFix" stdDeviation="2"/>
    <feComposite in2="SourceAlpha" operator="in" result="effect1_backgroundBlur_162_922"/>
    <feBlend mode="normal" in="SourceGraphic" in2="effect1_backgroundBlur_162_922" result="shape"/>
    </filter>
    </defs>
    </svg>
    