<svg width="24" height="22" viewBox="0 0 24 22" fill="none" xmlns="http://www.w3.org/2000/svg">
    <path d="M9.84349 16.8642C9.6135 16.8646 9.39061 16.7924 9.21351 16.6601C9.11384 16.5856 9.03145 16.494 8.97106 16.3908C8.91067 16.2875 8.87347 16.1745 8.86158 16.0583C8.84969 15.942 8.86336 15.8248 8.90179 15.7133C8.94022 15.6018 9.00267 15.4983 9.08555 15.4086L13.4954 10.6511L9.24304 5.88482C9.16128 5.79403 9.10022 5.68956 9.06337 5.57743C9.02653 5.46529 9.01463 5.34769 9.02835 5.2314C9.04207 5.1151 9.08114 5.00239 9.14333 4.89975C9.20551 4.79712 9.28958 4.70657 9.39069 4.63333C9.49254 4.55253 9.61181 4.49158 9.74101 4.45431C9.87022 4.41704 10.0066 4.40426 10.1415 4.41676C10.2765 4.42926 10.4071 4.46678 10.5252 4.52696C10.6433 4.58714 10.7463 4.66868 10.8278 4.76647L15.5821 10.092C15.7269 10.2508 15.8061 10.45 15.8061 10.6556C15.8061 10.8612 15.7269 11.0604 15.5821 11.2192L10.6605 16.5447C10.5617 16.6521 10.4363 16.737 10.2944 16.7925C10.1524 16.848 9.99793 16.8726 9.84349 16.8642Z" fill="black"/>
    </svg>
    