<svg width="31" height="31" viewBox="0 0 31 31" fill="none" xmlns="http://www.w3.org/2000/svg">
    <path fill-rule="evenodd" clip-rule="evenodd" d="M5.16667 6.45801C4.4533 6.45801 3.875 7.03631 3.875 7.74967C3.875 8.46304 4.4533 9.04134 5.16667 9.04134H25.8333C26.5467 9.04134 27.125 8.46304 27.125 7.74967C27.125 7.03631 26.5467 6.45801 25.8333 6.45801H5.16667ZM3.875 15.4997C3.875 14.7863 4.4533 14.208 5.16667 14.208H25.8333C26.5467 14.208 27.125 14.7863 27.125 15.4997C27.125 16.2131 26.5467 16.7913 25.8333 16.7913H5.16667C4.4533 16.7913 3.875 16.2131 3.875 15.4997ZM3.875 23.2497C3.875 22.5363 4.4533 21.958 5.16667 21.958H25.8333C26.5467 21.958 27.125 22.5363 27.125 23.2497C27.125 23.9631 26.5467 24.5413 25.8333 24.5413H5.16667C4.4533 24.5413 3.875 23.9631 3.875 23.2497Z" fill="#5F4B42"/>
    </svg>
    